<svg width="25" height="30" viewBox="0 0 25 30" fill="none" xmlns="http://www.w3.org/2000/svg">
<path d="M20.5215 15.8977C20.536 14.7921 20.8308 13.7081 21.3785 12.7465C21.9262 11.7848 22.709 10.9769 23.6542 10.3976C23.0537 9.54294 22.2615 8.8395 21.3406 8.34316C20.4197 7.84682 19.3953 7.57123 18.3489 7.53827C16.1151 7.30507 13.9504 8.8699 12.8122 8.8699C11.6528 8.8699 9.90033 7.5608 8.0149 7.60055C6.79467 7.63979 5.60546 7.99338 4.56316 8.62684C3.52085 9.2603 2.661 10.152 2.0674 11.2151C-0.504127 15.6513 1.41455 22.1716 3.87705 25.7583C5.10963 27.514 6.54963 29.475 8.43506 29.4061C10.2793 29.3292 10.968 28.2334 13.1952 28.2334C15.3997 28.2334 16.0459 29.4061 17.9686 29.3624C19.9484 29.3292 21.1943 27.5974 22.383 25.8246C23.2692 24.5737 23.9513 23.191 24.4041 21.7277C23.254 21.2432 22.2725 20.432 21.582 19.3952C20.8916 18.3584 20.5227 17.142 20.5215 15.8977ZM16.8889 5.17845C17.9681 3.88796 18.4999 2.22912 18.3715 0.554199C16.7227 0.726683 15.1996 1.51204 14.106 2.7537C13.5714 3.35984 13.1619 4.065 12.9009 4.82889C12.6399 5.59278 12.5325 6.40043 12.5849 7.2057C13.4094 7.21417 14.2252 7.03614 14.9707 6.68499C15.7162 6.33384 16.3721 5.81874 16.8889 5.17845Z" fill="white"/>
</svg>
